/* XPM */
static char *result[] = {
/* columns rows colors chars-per-pixel */
"64 64 2 1 ",
"  c #D574D0",
". c #78C8BF",
/* pixels */
"                                                                ",
"                                                                ",
"                                                                ",
"                                                                ",
"                                                                ",
"                                                                ",
"          ..          ..          ..          ..          ..    ",
"          ..          ..          ..          ..          ..    ",
"                                                                ",
"                                                                ",
"                                                                ",
"                                                                ",
"    ..          ..          ..          ..          ..          ",
"    ..          ..          ..          ..          ..          ",
"                                                                ",
"                                                                ",
"                                                                ",
"                                                                ",
"          ..          ..          ..          ..          ..    ",
"          ..          ..          ..          ..          ..    ",
"                                                                ",
"                                                                ",
"                                                                ",
"                                                                ",
"    ..          ..          ..          ..          ..          ",
"    ..          ..          ..          ..          ..          ",
"                                                                ",
"                                                                ",
"                                                                ",
"                                                                ",
"          ..          ..          ..          ..          ..    ",
"          ..          ..          ..          ..          ..    ",
"                                                                ",
"                                                                ",
"                                                                ",
"                                                                ",
"    ..          ..          ..          ..          ..          ",
"    ..          ..          ..          ..          ..          ",
"                                                                ",
"                                                                ",
"                                                                ",
"                                                                ",
"          ..          ..          ..          ..          ..    ",
"          ..          ..          ..          ..          ..    ",
"                                                                ",
"                                                                ",
"                                                                ",
"                                                                ",
"    ..          ..          ..          ..          ..          ",
"    ..          ..          ..          ..          ..          ",
"                                                                ",
"                                                                ",
"                                                                ",
"                                                                ",
"          ..          ..          ..          ..          ..    ",
"          ..          ..          ..          ..          ..    ",
"                                                                ",
"                                                                ",
"                                                                ",
"                                                                ",
"    ..          ..          ..          ..          ..          ",
"    ..          ..          ..          ..          ..          ",
"                                                                ",
"                                                                "
};
