/* XPM */
static char *result[] = {
/* columns rows colors chars-per-pixel */
"64 64 8 1 ",
"  c #1C0123",
". c #265B09",
"X c #EB1616",
"o c #E4A343",
"O c #D574D0",
"+ c #78C8BF",
"@ c #D487E8",
"# c #E0B9E9",
/* pixels */
"OOOOOOOOOOOOOOOOOOOOOOOOOOOOOOOOOOOOOOOOOOOOOOOOOOOOOOOOOOOOOOOO",
"OOOOOOOOOOOOOOOOOOOOOOOOOOOOOOOOOOOOOOOOOOOOOOOOOOOOOOOOOOOOOOOO",
"OOOOOOOOOOOOOOOOOOOOOOOOOOOOOOOOOOOOOOOOOOOOOOOOOOOOOOOOOOOOOOOO",
"OOOOOOOOOOOOOOOOOOOOOOOOOOOOOOOOOOOOOOOOOOOOOOOOOOOOOOOOOOOOOOOO",
"OOOOOOOOOOOOOOOOOOOOOOOOOOOOOOOOOOOOOOOOOOOOOOOOOOOOOOOOOOOOOOOO",
"OOOOOOOOOOOOOOOOOOOOOOOOOOOOOOOOOOOOOOOOOOOOOOOOOOOOOOOOOOOOOOOO",
"OOOOOOOOOO++OOOOOOOOOO++OOOOOOOOOO++OOOOOOOOOO++OOOOOOOOOO++OOOO",
"OOOOOOOOOO++OOOOOOOOOO++OOOOOOOOOO++OOOOOOOOOO++OOOOOOOOOO++OOOO",
"OOOOOOOOOOOOOOOOOOOOOOOOOOOOOOOOOOOOOOOOOOOOOOOOOOOOOOOOOOOOOOOO",
"OOOOOOOOOOOOOOOOOOOOOOOOOOOOOOOOOOOOOOOOOOOOOOOOOOOOOOOOOOOOOOOO",
"OOOOOOOOOOOOOOOOOOOOOOOOOOOOOOOOOOOO..OOOOOOOOOOOOOOOOOOOOOOOOOO",
"OOOOOOOOOOOOOOOOOOOOOOOOOOOOOOOOOOOO..OOOOOOOOOOOOOOOOOOOOOOOOOO",
"OOOO++OOOOOOOOOO++OOOOOOOOOO++OO  ......  OOOOOOOOOO++OOOOOOOOOO",
"OOOO++OOOOOOOOOO++OOOOOOOOOO++OO  ......  OOOOOOOOOO++OOOOOOOOOO",
"OOOOOOOOOOOOOOOOOOOOOOOOOOOO    XXXX..XXXX  OOOOOOOOOOOOOOOOOOOO",
"OOOOOOOOOOOOOOOOOOOOOOOOOOOO    XXXX..XXXX  OOOOOOOOOOOOOOOOOOOO",
"OOOOOOOOOOOOOOOOOOOOOOOOOO  @@@@XXXXXXXXXXoo  OOOOOOOOOOOOOOOOOO",
"OOOOOOOOOOOOOOOOOOOOOOOOOO  @@@@XXXXXXXXXXoo  OOOOOOOOOOOOOOOOOO",
"OOOOOOOOOO++OOOOOOOOOO    @@@@@@XXXXXXXXXX@@oo  OOOOOOOOOO++OOOO",
"OOOOOOOOOO++OOOOOOOOOO    @@@@@@XXXXXXXXXX@@oo  OOOOOOOOOO++OOOO",
"OOOOOOOOOOOOOOOOOO    @@@@@@@@@@@@XXXXXX@@@@@@oo  OOOOOOOOOOOOOO",
"OOOOOOOOOOOOOOOOOO    @@@@@@@@@@@@XXXXXX@@@@@@oo  OOOOOOOOOOOOOO",
"OOOOOOOOOOOOOO    @@@@@@@@@@@@@@@@@@XX@@@@@@@@@@oo  OOOOOOOOOOOO",
"OOOOOOOOOOOOOO    @@@@@@@@@@@@@@@@@@XX@@@@@@@@@@oo  OOOOOOOOOOOO",
"OOOO++OO      @@@@@@@@@@@@@@@@@@@@@@@@@@@@@@@@@@@@oo  OOOOOOOOOO",
"OOOO++OO      @@@@@@@@@@@@@@@@@@@@@@@@@@@@@@@@@@@@oo  OOOOOOOOOO",
"OOOOOO  @@@@@@@@@@@@@@@@@@@@@@@@@@@@@@@@@@@@@@@@@@@@oo  OOOOOOOO",
"OOOOOO  @@@@@@@@@@@@@@@@@@@@@@@@@@@@@@@@@@@@@@@@@@@@oo  OOOOOOOO",
"OOOOOO  oooooooooooooooooooooooooooooooooooooooooooooo  OOOOOOOO",
"OOOOOO  oooooooooooooooooooooooooooooooooooooooooooooo  OOOOOOOO",
"OOOOOO  oooooooooooooooooooooooooooooooooooooooooooooo  OO++OOOO",
"OOOOOO  oooooooooooooooooooooooooooooooooooooooooooooo  OO++OOOO",
"OOOOOO  oooooooooooooooooooooooooooooooooooooooooooooo  OOOOOOOO",
"OOOOOO  oooooooooooooooooooooooooooooooooooooooooooooo  OOOOOOOO",
"OOOOOO  ############################################oo  OOOOOOOO",
"OOOOOO  ############################################oo  OOOOOOOO",
"OOOO++  ############################################oo  OOOOOOOO",
"OOOO++  ############################################oo  OOOOOOOO",
"OOOOOO  oooooooooooooooooooooooooooooooooooooooooooooo  OOOOOOOO",
"OOOOOO  oooooooooooooooooooooooooooooooooooooooooooooo  OOOOOOOO",
"OOOOOO  oooooooooooooooooooooooooooooooooooooooooooooo  OOOOOOOO",
"OOOOOO  oooooooooooooooooooooooooooooooooooooooooooooo  OOOOOOOO",
"OOOOOO                                                  OO++OOOO",
"OOOOOO                                                  OO++OOOO",
"OOOOOOOOOOOOOOOOOOOOOOOOOOOOOOOOOOOOOOOOOOOOOOOOOOOOOOOOOOOOOOOO",
"OOOOOOOOOOOOOOOOOOOOOOOOOOOOOOOOOOOOOOOOOOOOOOOOOOOOOOOOOOOOOOOO",
"OOOOOOOOOOOOOOOOOOOOOOOOOOOOOOOOOOOOOOOOOOOOOOOOOOOOOOOOOOOOOOOO",
"OOOOOOOOOOOOOOOOOOOOOOOOOOOOOOOOOOOOOOOOOOOOOOOOOOOOOOOOOOOOOOOO",
"OOOO++OOOOOOOOOO++OOOOOOOOOO++OOOOOOOOOO++OOOOOOOOOO++OOOOOOOOOO",
"OOOO++OOOOOOOOOO++OOOOOOOOOO++OOOOOOOOOO++OOOOOOOOOO++OOOOOOOOOO",
"OOOOOOOOOOOOOOOOOOOOOOOOOOOOOOOOOOOOOOOOOOOOOOOOOOOOOOOOOOOOOOOO",
"OOOOOOOOOOOOOOOOOOOOOOOOOOOOOOOOOOOOOOOOOOOOOOOOOOOOOOOOOOOOOOOO",
"OOOOOOOOOOOOOOOOOOOOOOOOOOOOOOOOOOOOOOOOOOOOOOOOOOOOOOOOOOOOOOOO",
"OOOOOOOOOOOOOOOOOOOOOOOOOOOOOOOOOOOOOOOOOOOOOOOOOOOOOOOOOOOOOOOO",
"OOOOOOOOOO++OOOOOOOOOO++OOOOOOOOOO++OOOOOOOOOO++OOOOOOOOOO++OOOO",
"OOOOOOOOOO++OOOOOOOOOO++OOOOOOOOOO++OOOOOOOOOO++OOOOOOOOOO++OOOO",
"OOOOOOOOOOOOOOOOOOOOOOOOOOOOOOOOOOOOOOOOOOOOOOOOOOOOOOOOOOOOOOOO",
"OOOOOOOOOOOOOOOOOOOOOOOOOOOOOOOOOOOOOOOOOOOOOOOOOOOOOOOOOOOOOOOO",
"OOOOOOOOOOOOOOOOOOOOOOOOOOOOOOOOOOOOOOOOOOOOOOOOOOOOOOOOOOOOOOOO",
"OOOOOOOOOOOOOOOOOOOOOOOOOOOOOOOOOOOOOOOOOOOOOOOOOOOOOOOOOOOOOOOO",
"OOOO++OOOOOOOOOO++OOOOOOOOOO++OOOOOOOOOO++OOOOOOOOOO++OOOOOOOOOO",
"OOOO++OOOOOOOOOO++OOOOOOOOOO++OOOOOOOOOO++OOOOOOOOOO++OOOOOOOOOO",
"OOOOOOOOOOOOOOOOOOOOOOOOOOOOOOOOOOOOOOOOOOOOOOOOOOOOOOOOOOOOOOOO",
"OOOOOOOOOOOOOOOOOOOOOOOOOOOOOOOOOOOOOOOOOOOOOOOOOOOOOOOOOOOOOOOO"
};
