/* XPM */
static char *_3eca683f13448b3f50fdc612deef7cbawZcGKV5pjM7BPx7[] = {
/* columns rows colors chars-per-pixel */
"64 64 5 1 ",
"  c #0E3F33",
". c #1AAA86",
"X c #26D5AA",
"o c #DAD1D1",
"O c white",
/* pixels */
"XXXX..XXX. XXXXXX.XX. XXXXXXXXX. XXXXXXXXX. XXXXX..XX. XXX.XXXXX",
"XXXXXXXXX. XXXXXXXXX. XXX.XXXXX. XXXXXX.XX. XXXXXXXXX. XXXXXXX.X",
".......... .......... .......... .......... .......... .........",
"                                                                ",
"XXX XXXXXXXXXX XXXXXXXXXX XXXXXXXXXX XXXXXXXXXX XXXXXXXXXX XXXXX",
"XX. XXX..XXXX. XXXXXX..X. XXXXXXXXX. XXXXXX.XX. XXXXXXXXX. XXXXX",
"X.. XXXXXX.XX. XX.XXXXXX. XXX..XXXX. XX.XXXXXX. X.XXXXXXX. XX..X",
"XX. XXXXXXXXX. XXXXXXXXX. XXXXXX.XX. XXXXXXXXX. XXXXXXXXX. XXXXX",
"... .......... .......... .......... .......... .......... .....",
"                                                                ",
"XXXXXXX XXXXXXXXXX XXXXXXXXOOoOOOOOOOXXX XXXXXXXXXX XXXXXXXXXX X",
"XXXXXX. XXXXXX..X. XXXXOOOOX. XXXXXXXOOooXX..XXXXX. XXXX.XXXX. X",
"XX..XX. XX..XXXXX. XXOOXXX.X. XXXX..XXX. OOXXXXXXX. XXXXX..XX. X",
"XXXXXX. XXXXXXXXX. OOXXXXXX.. X.XXXXXXX. XXOOX..XX. XXXXXXXXX. X",
"....... .........oo.......... .......... ....oo.... .......... .",
"                o                              o                ",
" XXXXXXXXXX XXXOXXXXXX XXXXXXXXXX XXXXXXXXXX XXXOXXXXXX XXXXXXXX",
" XXXXX.XXX. XXOXXX..X. XXXXXX..X. XX..XXXXX. XX.XOXXXX. XXXX.XXX",
" XX.XXXX... XO.XXXXXX. OOOOOOOOOOOOOOOOOOOO. XXXXXO..X. X..XXX.X",
" XXXXXXXXX. OXXXXXXXX.OOOOOOOOOOOOOOOOOOOOOO .XX.XXOXX. XXXXXXXX",
" ..........o.........OOOOoooooooooooooooooo. .......o.. ........",
"           o         OOOo                           o           ",
"XXXX XXXXXOXXXX XXXXXOOoXX XXXXXXXXXX XXXXXXXXXX XXXXOXXXXX XXXX",
"XXX. XX..XOXXX. XXXX.OOoX. XXXX..XXX. XXX..XXXX. XXXXO.XXX. XXXX",
"..X. X.XXO.X.X. XX..XOOoX. XX.XXXXX.. XXXXXX..X. XXXXXOXXX. XXX.",
"XXX. XXXXOXXXX. XXXXXOOoX. XXXXXXXXX. XXXXXXXXX. XX.XXOX.X. X..X",
".... ....o..... .....OOo.. .......... .......... .....o.... ....",
"        o            OOo                               o        ",
"XXXXXXXXoXXXXXXXXXX XOOoXXXXXX X.XXXXXXX XXXXXXXXXXX XXOXXXXXXX ",
"XXX..XX.oX.XXX..XXX XOOOo..XXX XXXXXXX.. XXXX..XXXX. XXOXXXXXX. ",
".X.XX.X.oXXX.XXXX.. XOOOOOOOOOOOOOO.XXXX XXXXXXXXXX. .XO..XX.X. ",
"XXXXXXX.oXXXXXXXXXX XOOOOOOOOOOOOOOOXXXX XX.XXX.XXX. XXOXXXXXX. ",
"........o.......... .OOOOoooooooooo..... ........... ..o....... ",
"        o            OOOo                              o        ",
"X XXXXXXOXXX XXXXXXXXOOoXXXXXXXXXX XXXXXXXXX XXXXXXXXXXO XXXXXXX",
". XXXX..OXX. XX..XXXXOOoX.XXXXX.X. X.XXXXX.. XXXXX..XXXO XXXXX..",
". XXXXXXXOX. XXXXXX..OOoXXXX..XXX. XXXXX..X. XXXXXXXXXO. XX.XXXX",
". X..XXXXOX. X.XXXXXXOOoXXXXXXXXX. XXXXXXXX. XX.XXXXXXO. XXXXXXX",
". .......o.. ........OOo.......... ......... .........o. .......",
"          o          OOo                             o          ",
"XXXXX XXXXOXXXXX XXXXOOoXXX XXXXXXXXXX XXXXXXXXX XXXXOXXXXXX XXX",
"XXX.. XX..XOX.X. XXXXOOOoX. XX.XXXXXX. XXXXX..X. XXXOXXX.XX. XXX",
"..XX. XXXXXOXXX. X..XOOOOOOOOOOOOOOOOOOOOOOXXXX. X.XO..XXXX. XXX",
"XXXX. XXXXXXOXX. XXXXXOOOOOOOOOOOOOOOOOOOOOOXXX. XXOXXXXXXX. XXX",
"..... .......o.. ......oooooooooooooooooooo..... .o......... ...",
"              o                                  o              ",
"XXXXXXXXX XXXXXOXXXX XXXXXXXXXX XXXXXXXXXX XXXXXOXXX XXXXXXXXXX ",
"XXXXXXXX. XXX.XXOXX. XXXXXXXXX. XXXXXXXX.. XXXXOXXX. XXXXXXXXX. ",
"X..X.XXX. XXXXXX.OO. XXXX.X..X. XXX.X..XX. XXOOXX.X. XX..XX..X. ",
"XXXXXXXX. XXXXXXXXXOoXXXXXXXXX. XXXXXXXXX. OOXX.XXX. XXXX.XXXX. ",
"......... .......... oo........ .........oo......... .......... ",
"                       oooo          oooo                       ",
"XX XXXXXXXXXX XXXXXXXXXX XXOOOOOOOOoOXXXXXXXXX XXXXXXXXX XXXXXXX",
"X. XXXXXXXXX. XXXXXXXXX. XXXXXXXXX. XXXXXXXXX. XXXXX..X. XXXXXXX",
"X. XX..XXXX.. XX..XX.XX. XXXXX..XX. XXXXXX.XX. XXXXXXXX. X..XX.X",
"X. XXXXXX.XX. XXXXXXX.X. XXXXXXXX.. XX..XXXXX. XX.X.XXX. XXXXXXX",
".. .......... .......... .......... .......... ......... .......",
"                                                                ",
"XXXXXX XXXXXXXXXX XXXXXXXXXX XXXXXXXXXX XXXXXXXXXXX XXXXXXXXXX X",
"XXXXX. XXXXXXXXX. XXXXXXXXX. XXXXXXXXX. XXXXXXXXXX. XXXXXX.XX. X",
".XXX.. XX..XX.XX. XXX.XX..X. XX.XXXX.X. XXX..XXX.X. XX..XXXX.. X",
"XXX.X. XXXXXXX.X. XXXXXXXXX. XXXX..XXX. XXXXXX.XXX. XXXXXXXXX. X",
"...... .......... .......... .......... ........... .......... .",
"                                                                "
};
