/* XPM */
static char *f313d70d5b644491a4c79e622ed61b5aEzcoUK5vaK5nzG1W[] = {
/* columns rows colors chars-per-pixel */
"64 64 8 1 ",
"  c black",
". c #0E3F33",
"X c #48280C",
"o c #EFED15",
"O c #EF15DA",
"+ c #C46CE9",
"@ c #1AAA86",
"# c #26D5AA",
/* pixels */
"@@@@####@@##..##########                ##########@@@@##..######",
"@@@@####@@##..##########                ##########@@@@##..######",
"####@@@@##@@..####      ++++  ++++  ++++      ########@@..####@@",
"####@@@@##@@..####      ++++  ++++  ++++      ########@@..####@@",
"##########@@..##  ++++  ++++  ++++  ++++  ++++  @@####@@..######",
"##########@@..##  ++++  ++++  ++++  ++++  ++++  @@####@@..######",
"##########@@..    ++++                    ++++    ####@@..######",
"##########@@..    ++++                    ++++    ####@@..######",
"@@@@@@@@@@@@  ++++    XXXX  XXXXXX  XXXXXX    ++++  @@@@..@@@@@@",
"@@@@@@@@@@@@  ++++    XXXX  XXXXXX  XXXXXX    ++++  @@@@..@@@@@@",
"..........    ++++  XXXXXX  XXXXXX  XXXXXX    ++++    ..........",
"..........    ++++  XXXXXX  XXXXXX  XXXXXX    ++++    ..........",
"..######  ++++      XXXXXX  XXXXXX  XXXXXX  XX    ++++  ########",
"..######  ++++      XXXXXX  XXXXXX  XXXXXX  XX    ++++  ########",
"..####    ++++  XX  XXXXXX  XXXXXX  XXXXXX  XXXX  ++++    ####@@",
"..####    ++++  XX  XXXXXX  XXXXXX  XXXXXX  XXXX  ++++    ####@@",
"..##  ++++    XXXX  XXXXXX  XXXXXX  XXXXXX  XXXXXX    ++++  ##@@",
"..##  ++++    XXXX  XXXXXX  XXXXXX  XXXXXX  XXXXXX    ++++  ##@@",
"..##  ++++  XXXXXX  XXXXXX  OOXXXX  OOXXXX  XXXXXX    ++++  ##@@",
"..##  ++++  XXXXXX  XXXXXX  OOXXXX  OOXXXX  XXXXXX    ++++  ##@@",
"..@@        XXXXXX  XXXXXXOOXXOOXXOOXXOOXX  XXXXXX          @@@@",
"..@@        XXXXXX  XXXXXXOOXXOOXXOOXXOOXX  XXXXXX          @@@@",
"....  ++++  XXXXXX  XXXXOO  XXXXOO  XXXXOO  XXXXXX    ++++  ....",
"....  ++++  XXXXXX  XXXXOO  XXXXOO  XXXXOO  XXXXXX    ++++  ....",
"####  ++++  XXXXXX  XXXXXXOOXXOOXXOOXXOOXX  XXXXXX    ++++  ####",
"####  ++++  XXXXXX  XXXXXXOOXXOOXXOOXXOOXX  XXXXXX    ++++  ####",
"####        XXXXXX  XXXXXX  OOXXXX  OOXXXX  XXXXXX          @@##",
"####        XXXXXX  XXXXXX  OOXXXX  OOXXXX  XXXXXX          @@##",
"##@@  ++++  XXXXXX  XXXXXX  XXXXXX  XXXXXX  XXXXXX    ++++  ####",
"##@@  ++++  XXXXXX  XXXXXX  XXXXXX  XXXXXX  XXXXXX    ++++  ####",
"####  ++++  XXXXXX  XXXXXX  XXXXXX  XXXXXX  XXXXXX    ++++  ##@@",
"####  ++++  XXXXXX  XXXXXX  XXXXXX  XXXXXX  XXXXXX    ++++  ##@@",
"@@@@        XXXXXX  XXXXXX  XXXXXX  XXXXXX  XXXXXX          @@@@",
"@@@@        XXXXXX  XXXXXX  XXXXXX  XXXXXX  XXXXXX          @@@@",
"....  ++++  XXXXXX  XXXXXX  XXXXXX  XXXXXX  XXXXXX    ++++  ....",
"....  ++++  XXXXXX  XXXXXX  XXXXXX  XXXXXX  XXXXXX    ++++  ....",
"####  ++++  XXXXXX  XXXXXX  XXXXXX  XXXXXX  XXXXXX    ++++  @@##",
"####  ++++  XXXXXX  XXXXXX  XXXXXX  XXXXXX  XXXXXX    ++++  @@##",
"####        XXXXXX  XXXXXX  XXXXXX  XXXXXX  XXooXX          ##@@",
"####        XXXXXX  XXXXXX  XXXXXX  XXXXXX  XXooXX          ##@@",
"####  ++++  XXXXXX  XXXXXX  XXXXXX  XXXXooooooooXX    ++++  @@@@",
"####  ++++  XXXXXX  XXXXXX  XXXXXX  XXXXooooooooXX    ++++  @@@@",
"####  ++++  XXXXXX  XXXXXX  XXXXXX  XXXXXX  XXXXXX    ++++  ##@@",
"####  ++++  XXXXXX  XXXXXX  XXXXXX  XXXXXX  XXXXXX    ++++  ##@@",
"@@@@        XXXXXX  XXXXXX  XXXXXX  XXXXXX  XXXXXX          @@@@",
"@@@@        XXXXXX  XXXXXX  XXXXXX  XXXXXX  XXXXXX          @@@@",
"....  ++++  XXXXXX  XXXXXX  XXXXXX  XXXXXX  XXXXXX    ++++  ....",
"....  ++++  XXXXXX  XXXXXX  XXXXXX  XXXXXX  XXXXXX    ++++  ....",
"####  ++++  XXXXXX  XXXXXX  XXXXXX  XXXXXX  XXXXXX    ++++  ####",
"####  ++++  XXXXXX  XXXXXX  XXXXXX  XXXXXX  XXXXXX    ++++  ####",
"####        XXXXXX  XXXXXX  XXXXXX  XXXXXX  XXXXXX          @@@@",
"####        XXXXXX  XXXXXX  XXXXXX  XXXXXX  XXXXXX          @@@@",
"##@@  ++++  XXXXXX  XXXXXX  XXXXXX  XXXXXX  XXXXXX    ++++  ####",
"##@@  ++++  XXXXXX  XXXXXX  XXXXXX  XXXXXX  XXXXXX    ++++  ####",
"####  ++++  XXXXXX  XXXXXX  XXXXXX  XXXXXX  XXXXXX    ++++  ####",
"####  ++++  XXXXXX  XXXXXX  XXXXXX  XXXXXX  XXXXXX    ++++  ####",
"@@@@        XXXXXX  XXXXXX  XXXXXX  XXXXXX  XXXXXX          @@@@",
"@@@@        XXXXXX  XXXXXX  XXXXXX  XXXXXX  XXXXXX          @@@@",
"....  ++++  XXXXXX  XXXXXX  XXXXXX  XXXXXX  XXXXXX    ++++  ....",
"....  ++++  XXXXXX  XXXXXX  XXXXXX  XXXXXX  XXXXXX    ++++  ....",
"####  ++++  XXXXXX  XXXXXX  XXXXXX  XXXXXX  XXXXXX    ++++  ##..",
"####  ++++  XXXXXX  XXXXXX  XXXXXX  XXXXXX  XXXXXX    ++++  ##..",
"####                                                        @@..",
"####                                                        @@.."
};
