/* XPM */
static char *result[] = {
/* columns rows colors chars-per-pixel */
"64 64 7 1 ",
"  c black",
". c #4C677F",
"X c #D574D0",
"o c #E875CE",
"O c #78C8BF",
"+ c #B9ECED",
"@ c #EFF7F8",
/* pixels */
"XXXXXXXXXXXXXXXXXXXXXXXXXXXXXXXXXXXXXXXXXXXXXXXXXXXXXXXXXXXXXXXX",
"XXXXXXXXXXXXXXXXXXXXXXXXXXXXXXXXXXXXXXXXXXXXXXXXXXXXXXXXXXXXXXXX",
"XXXXXXXXXXXXXXXXXXXXXXXXXXXXXXXXXXXXXXXXXXXXXXXXXXXXXXXXXXXXXXXX",
"XXXXXXXXXXXXXXXXXXXXXXXXXXXXXXXXXXXXXXXXXXXXXXXXXXXXXXXXXXXXXXXX",
"XXXXXXXXXXXXXXXXXXXXXXXXXX++@@@@@@@@@@@@XXXXXXXXXXXXXXXXXXXXXXXX",
"XXXXXXXXXXXXXXXXXXXXXXXXXX++@@@@@@@@@@@@XXXXXXXXXXXXXXXXXXXXXXXX",
"XXXXXXXXXXOOXXXXXXXXXX++@@@@@@@@@@@@@@@@@@@@XXOOXXXXXXXXXXOOXXXX",
"XXXXXXXXXXOOXXXXXXXXXX++@@@@@@@@@@@@@@@@@@@@XXOOXXXXXXXXXXOOXXXX",
"XXXXXXXXXXXXXXXXXXXX++@@@@@@@@@@@@@@@@@@@@@@@@XXXXXXXXXXXXXXXXXX",
"XXXXXXXXXXXXXXXXXXXX++@@@@@@@@@@@@@@@@@@@@@@@@XXXXXXXXXXXXXXXXXX",
"XXXXXXXXXXXXXXXXXXXX++@@@@@@@@@@@@@@@@@@@@@@@@@@XXXXXXXXXXXXXXXX",
"XXXXXXXXXXXXXXXXXXXX++@@@@@@@@@@@@@@@@@@@@@@@@@@XXXXXXXXXXXXXXXX",
"XXXXOOXXXXXXXXXXOOXX++@@@@@@@@@@@@@@@@@@@@@@@@@@XXXXOOXXXXXXXXXX",
"XXXXOOXXXXXXXXXXOOXX++@@@@@@@@@@@@@@@@@@@@@@@@@@XXXXOOXXXXXXXXXX",
"XXXXXXXXXXXXXXXXXXXX++@@@@@@    @@@@@@    @@@@@@XXXXXXXXXXXXXXXX",
"XXXXXXXXXXXXXXXXXXXX++@@@@@@    @@@@@@    @@@@@@XXXXXXXXXXXXXXXX",
"XXXXXXXXXXXXXXXXXXXX++++@@      @@@@      @@@@@@XXXXXXXXXXXXXXXX",
"XXXXXXXXXXXXXXXXXXXX++++@@      @@@@      @@@@@@XXXXXXXXXXXXXXXX",
"XXXXXXXXXXOOXXXXXXXX++++@@@@@@@@@@@@@@@@@@@@@@@@XXXXXXXXXXOOXXXX",
"XXXXXXXXXXOOXXXXXXXX++++@@@@@@@@@@@@@@@@@@@@@@@@XXXXXXXXXXOOXXXX",
"XXXXXXXXXXXXXXXXXXXX++++@@@@@@oooooooo@@@@@@@@@@XXXXXXXXXXXXXXXX",
"XXXXXXXXXXXXXXXXXXXX++++@@@@@@oooooooo@@@@@@@@@@XXXXXXXXXXXXXXXX",
"XXXXXXXXXXXXXXXXXXXX++@@@@@@@@oooooo@@@@@@@@@@@@XXXXXXXXXXXXXXXX",
"XXXXXXXXXXXXXXXXXXXX++@@@@@@@@oooooo@@@@@@@@@@@@XXXXXXXXXXXXXXXX",
"XXXXOOXXXXXXXXXXOOXX++@@@@@@@@@@@@@@@@@@@@@@@@@@XXXXOOXXXXXXXXXX",
"XXXXOOXXXXXXXXXXOOXX++@@@@@@@@@@@@@@@@@@@@@@@@@@XXXXOOXXXXXXXXXX",
"XXXXXXXXXXXXXXXXXX++@@........@@@@@@@@@@@@@@@@@@@@XXXXXXXXXXXXXX",
"XXXXXXXXXXXXXXXXXX++@@........@@@@@@@@@@@@@@@@@@@@XXXXXXXXXXXXXX",
"XXXXXXXXXXXXXXXX++@@@@@@@@@@....@@@@@@@@@@@@@@@@@@@@@@@@@@XXXXXX",
"XXXXXXXXXXXXXXXX++@@@@@@@@@@....@@@@@@@@@@@@@@@@@@@@@@@@@@XXXXXX",
"XXXXXXXXXXOOXXXX++@@@@@@@@@@@@....@@@@@@@@@@@@@@@@@@@@@@++OOXXXX",
"XXXXXXXXXXOOXXXX++@@@@@@@@@@@@....@@@@@@@@@@@@@@@@@@@@@@++OOXXXX",
"XXXXXXXXXXXXXX++++@@@@@@@@......@@@@@@@@@@@@@@@@@@++++++XXXXXXXX",
"XXXXXXXXXXXXXX++++@@@@@@@@......@@@@@@@@@@@@@@@@@@++++++XXXXXXXX",
"XXXXXXXX++@@@@@@@@@@@@@@....@@@@@@@@@@@@@@@@@@@@++XXXXXXXXXXXXXX",
"XXXXXXXX++@@@@@@@@@@@@@@....@@@@@@@@@@@@@@@@@@@@++XXXXXXXXXXXXXX",
"XXXXOO++++@@@@@@@@@@@@@@@@@@@@@@@@@@@@@@@@@@@@@@XXXXOOXXXXXXXXXX",
"XXXXOO++++@@@@@@@@@@@@@@@@@@@@@@@@@@@@@@@@@@@@@@XXXXOOXXXXXXXXXX",
"XXXXXX++@@@@@@@@@@@@@@@@@@@@@@@@@@@@@@@@@@@@@@@@XXXXXXXXXXXXXXXX",
"XXXXXX++@@@@@@@@@@@@@@@@@@@@@@@@@@@@@@@@@@@@@@@@XXXXXXXXXXXXXXXX",
"XXXXXX++@@@@@@@@@@@@@@@@@@@@@@@@@@@@@@@@@@@@@@@@XXXXXXXXXXXXXXXX",
"XXXXXX++@@@@@@@@@@@@@@@@@@@@@@@@@@@@@@@@@@@@@@@@XXXXXXXXXXXXXXXX",
"XXXX++++@@@@@@@@@@@@@@@@@@@@@@@@@@@@@@@@@@@@@@@@XXXXXXXXXXOOXXXX",
"XXXX++++@@@@@@@@@@@@@@@@@@@@@@@@@@@@@@@@@@@@@@@@XXXXXXXXXXOOXXXX",
"XXXX++++++++++++@@@@@@@@@@@@@@@@@@@@@@@@@@@@@@@@XXXXXXXXXXXXXXXX",
"XXXX++++++++++++@@@@@@@@@@@@@@@@@@@@@@@@@@@@@@@@XXXXXXXXXXXXXXXX",
"XXXX++++XXXXXX++@@@@@@@@@@@@@@@@@@@@@@@@@@@@@@@@XXXXXXXXXXXXXXXX",
"XXXX++++XXXXXX++@@@@@@@@@@@@@@@@@@@@@@@@@@@@@@@@XXXXXXXXXXXXXXXX",
"XX++++XXXXXXXX++@@++++++@@@@@@@@@@@@@@@@@@@@@@@@XXXXOOXXXXXXXXXX",
"XX++++XXXXXXXX++@@++++++@@@@@@@@@@@@@@@@@@@@@@@@XXXXOOXXXXXXXXXX",
"++XXXXXXXXXX++++@@XXXX++@@@@@@@@@@@@@@@@@@@@@@@@@@XXXXXXXXXXXXXX",
"++XXXXXXXXXX++++@@XXXX++@@@@@@@@@@@@@@@@@@@@@@@@@@XXXXXXXXXXXXXX",
"XXXXXXXXXXXXXX++++XXXXXX@@@@@@@@@@@@@@@@@@@@@@@@@@XXXXXXXXXXXXXX",
"XXXXXXXXXXXXXX++++XXXXXX@@@@@@@@@@@@@@@@@@@@@@@@@@XXXXXXXXXXXXXX",
"XXXXXXXXXXOO++++XXXXXXOO++@@@@@@@@@@@@@@@@@@@@@@@@@@XXXXXXOOXXXX",
"XXXXXXXXXXOO++++XXXXXXOO++@@@@@@@@@@@@@@@@@@@@@@@@@@XXXXXXOOXXXX",
"XXXXXXXXXX++++XXXXXXXXXXXX++++++XX++@@@@@@@@@@@@@@@@XXXXXXXXXXXX",
"XXXXXXXXXX++++XXXXXXXXXXXX++++++XX++@@@@@@@@@@@@@@@@XXXXXXXXXXXX",
"XXXXXXXX++XXXXXXXXXXXXXXXX++XXXXXXXX++++XXXX++@@++++++XXXXXXXXXX",
"XXXXXXXX++XXXXXXXXXXXXXXXX++XXXXXXXX++++XXXX++@@++++++XXXXXXXXXX",
"XXXXOOXXXXXXXXXXOOXXXXXX++XXOOXXXXXX++XXOOXXXX++XXXXOO++XXXXXXXX",
"XXXXOOXXXXXXXXXXOOXXXXXX++XXOOXXXXXX++XXOOXXXX++XXXXOO++XXXXXXXX",
"XXXXXXXXXXXXXXXXXXXXXXXXXXXXXXXXXXXXXXXXXXXXXXXXXXXXXXXXXXXXXXXX",
"XXXXXXXXXXXXXXXXXXXXXXXXXXXXXXXXXXXXXXXXXXXXXXXXXXXXXXXXXXXXXXXX"
};
