/* XPM */
static char *result[] = {
/* columns rows colors chars-per-pixel */
"64 64 7 1 ",
"  c black",
". c #4C677F",
"X c #D574D0",
"o c #E875CE",
"O c #78C8BF",
"+ c #B9ECED",
"@ c #EFF7F8",
/* pixels */
"XXXXXXXXXXXXXXXXXXXXXXXXXXXXXXXXXXXXXXXXXXXXXXXXXXXXXXXXXXXXXXXX",
"XXXXXXXXXXXXXXXXXXXXXXXXXXXXXXXXXXXXXXXXXXXXXXXXXXXXXXXXXXXXXXXX",
"XXXXXXXXXXXXXXXXXXXXXXXXXXXXXXXXXXXXXXXXXXXXXXXXXXXXXXXXXXXXXXXX",
"XXXXXXXXXXXXXXXXXXXXXXXXXXXXXXXXXXXXXXXXXXXXXXXXXXXXXXXXXXXXXXXX",
"XXXXXXXXXXXXXXXXXXXXXXXX@@@@@@@@@@@@++XXXXXXXXXXXXXXXXXXXXXXXXXX",
"XXXXXXXXXXXXXXXXXXXXXXXX@@@@@@@@@@@@++XXXXXXXXXXXXXXXXXXXXXXXXXX",
"XXXXXXXXXXOOXXXXXXXX@@@@@@@@@@@@@@@@@@@@++XXXXOOXXXXXXXXXXOOXXXX",
"XXXXXXXXXXOOXXXXXXXX@@@@@@@@@@@@@@@@@@@@++XXXXOOXXXXXXXXXXOOXXXX",
"XXXXXXXXXXXXXXXXXX@@@@@@@@@@@@@@@@@@@@@@@@++XXXXXXXXXXXXXXXXXXXX",
"XXXXXXXXXXXXXXXXXX@@@@@@@@@@@@@@@@@@@@@@@@++XXXXXXXXXXXXXXXXXXXX",
"XXXXXXXXXXXXXXXX@@@@@@@@@@@@@@@@@@@@@@@@@@++XXXXXXXXXXXXXXXXXXXX",
"XXXXXXXXXXXXXXXX@@@@@@@@@@@@@@@@@@@@@@@@@@++XXXXXXXXXXXXXXXXXXXX",
"XXXXOOXXXXXXXXXX@@@@@@@@@@@@@@@@@@@@@@@@@@++XXXXXXXXOOXXXXXXXXXX",
"XXXXOOXXXXXXXXXX@@@@@@@@@@@@@@@@@@@@@@@@@@++XXXXXXXXOOXXXXXXXXXX",
"XXXXXXXXXXXXXXXX@@@@@@    @@@@@@    @@@@@@++XXXXXXXXXXXXXXXXXXXX",
"XXXXXXXXXXXXXXXX@@@@@@    @@@@@@    @@@@@@++XXXXXXXXXXXXXXXXXXXX",
"XXXXXXXXXXXXXXXX@@@@@@      @@@@      @@++++XXXXXXXXXXXXXXXXXXXX",
"XXXXXXXXXXXXXXXX@@@@@@      @@@@      @@++++XXXXXXXXXXXXXXXXXXXX",
"XXXXXXXXXXOOXXXX@@@@@@@@@@@@@@@@@@@@@@@@++++XXOOXXXXXXXXXXOOXXXX",
"XXXXXXXXXXOOXXXX@@@@@@@@@@@@@@@@@@@@@@@@++++XXOOXXXXXXXXXXOOXXXX",
"XXXXXXXXXXXXXXXX@@@@@@@@@@oooooooo@@@@@@++++XXXXXXXXXXXXXXXXXXXX",
"XXXXXXXXXXXXXXXX@@@@@@@@@@oooooooo@@@@@@++++XXXXXXXXXXXXXXXXXXXX",
"XXXXXXXXXXXXXXXX@@@@@@@@@@@@oooooo@@@@@@@@++XXXXXXXXXXXXXXXXXXXX",
"XXXXXXXXXXXXXXXX@@@@@@@@@@@@oooooo@@@@@@@@++XXXXXXXXXXXXXXXXXXXX",
"XXXXOOXXXXXXXXXX@@@@@@@@@@@@@@@@@@@@@@@@@@++XXXXXXXXOOXXXXXXXXXX",
"XXXXOOXXXXXXXXXX@@@@@@@@@@@@@@@@@@@@@@@@@@++XXXXXXXXOOXXXXXXXXXX",
"XXXXXXXXXXXXXX@@@@@@@@@@@@@@@@@@@@........@@++XXXXXXXXXXXXXXXXXX",
"XXXXXXXXXXXXXX@@@@@@@@@@@@@@@@@@@@........@@++XXXXXXXXXXXXXXXXXX",
"XXXXXX@@@@@@@@@@@@@@@@@@@@@@@@@@....@@@@@@@@@@++XXXXXXXXXXXXXXXX",
"XXXXXX@@@@@@@@@@@@@@@@@@@@@@@@@@....@@@@@@@@@@++XXXXXXXXXXXXXXXX",
"XXXXXX++@@@@@@@@@@@@@@@@@@@@@@....@@@@@@@@@@@@++XXXXXXXXXXOOXXXX",
"XXXXXX++@@@@@@@@@@@@@@@@@@@@@@....@@@@@@@@@@@@++XXXXXXXXXXOOXXXX",
"XXXXXXXX++++++@@@@@@@@@@@@@@@@@@......@@@@@@@@++++XXXXXXXXXXXXXX",
"XXXXXXXX++++++@@@@@@@@@@@@@@@@@@......@@@@@@@@++++XXXXXXXXXXXXXX",
"XXXXXXXXXXXXXX++@@@@@@@@@@@@@@@@@@@@....@@@@@@@@@@@@@@++XXXXXXXX",
"XXXXXXXXXXXXXX++@@@@@@@@@@@@@@@@@@@@....@@@@@@@@@@@@@@++XXXXXXXX",
"XXXXOOXXXXXXXXXX@@@@@@@@@@@@@@@@@@@@@@@@@@@@@@@@@@@@@@++++XXXXXX",
"XXXXOOXXXXXXXXXX@@@@@@@@@@@@@@@@@@@@@@@@@@@@@@@@@@@@@@++++XXXXXX",
"XXXXXXXXXXXXXXXX@@@@@@@@@@@@@@@@@@@@@@@@@@@@@@@@@@@@@@@@++XXXXXX",
"XXXXXXXXXXXXXXXX@@@@@@@@@@@@@@@@@@@@@@@@@@@@@@@@@@@@@@@@++XXXXXX",
"XXXXXXXXXXXXXXXX@@@@@@@@@@@@@@@@@@@@@@@@@@@@@@@@@@@@@@@@++XXXXXX",
"XXXXXXXXXXXXXXXX@@@@@@@@@@@@@@@@@@@@@@@@@@@@@@@@@@@@@@@@++XXXXXX",
"XXXXXXXXXXOOXXXX@@@@@@@@@@@@@@@@@@@@@@@@@@@@@@@@@@@@@@@@++++XXXX",
"XXXXXXXXXXOOXXXX@@@@@@@@@@@@@@@@@@@@@@@@@@@@@@@@@@@@@@@@++++XXXX",
"XXXXXXXXXXXXXXXX@@@@@@@@@@@@@@@@@@@@@@@@@@@@@@@@++++++++++++XXXX",
"XXXXXXXXXXXXXXXX@@@@@@@@@@@@@@@@@@@@@@@@@@@@@@@@++++++++++++XXXX",
"XXXXXXXXXXXXXXXX@@@@@@@@@@@@@@@@@@@@@@@@@@@@@@@@++XXXXXX++++XXXX",
"XXXXXXXXXXXXXXXX@@@@@@@@@@@@@@@@@@@@@@@@@@@@@@@@++XXXXXX++++XXXX",
"XXXXOOXXXXXXXXXX@@@@@@@@@@@@@@@@@@@@@@@@++++++@@++XXOOXXXX++++XX",
"XXXXOOXXXXXXXXXX@@@@@@@@@@@@@@@@@@@@@@@@++++++@@++XXOOXXXX++++XX",
"XXXXXXXXXXXXXX@@@@@@@@@@@@@@@@@@@@@@@@@@++XXXX@@++++XXXXXXXXXX++",
"XXXXXXXXXXXXXX@@@@@@@@@@@@@@@@@@@@@@@@@@++XXXX@@++++XXXXXXXXXX++",
"XXXXXXXXXXXXXX@@@@@@@@@@@@@@@@@@@@@@@@@@XXXXXX++++XXXXXXXXXXXXXX",
"XXXXXXXXXXXXXX@@@@@@@@@@@@@@@@@@@@@@@@@@XXXXXX++++XXXXXXXXXXXXXX",
"XXXXXXXXXXOO@@@@@@@@@@@@@@@@@@@@@@@@@@++XXXXXXOO++++XXXXXXOOXXXX",
"XXXXXXXXXXOO@@@@@@@@@@@@@@@@@@@@@@@@@@++XXXXXXOO++++XXXXXXOOXXXX",
"XXXXXXXXXXXX@@@@@@@@@@@@@@@@++XX++++++XXXXXXXXXXXX++++XXXXXXXXXX",
"XXXXXXXXXXXX@@@@@@@@@@@@@@@@++XX++++++XXXXXXXXXXXX++++XXXXXXXXXX",
"XXXXXXXXXX++++++@@++XXXX++++XXXXXXXX++XXXXXXXXXXXXXXXX++XXXXXXXX",
"XXXXXXXXXX++++++@@++XXXX++++XXXXXXXX++XXXXXXXXXXXXXXXX++XXXXXXXX",
"XXXXOOXX++XXXXXX++XXXXXXXX++OOXXXXXXXX++OOXXXXXXXXXXOOXXXXXXXXXX",
"XXXXOOXX++XXXXXX++XXXXXXXX++OOXXXXXXXX++OOXXXXXXXXXXOOXXXXXXXXXX",
"XXXXXXXXXXXXXXXXXXXXXXXXXXXXXXXXXXXXXXXXXXXXXXXXXXXXXXXXXXXXXXXX",
"XXXXXXXXXXXXXXXXXXXXXXXXXXXXXXXXXXXXXXXXXXXXXXXXXXXXXXXXXXXXXXXX"
};
