/* XPM */
static char *c594844eab68452fe7ba3b9c37ee7461np1Gp9iWIB6QMLfM[] = {
/* columns rows colors chars-per-pixel */
"64 64 5 1 ",
"  c #0E3F33",
". c #1AAA86",
"X c #26D5AA",
"o c #DAD1D1",
"O c white",
/* pixels */
"XXXX..XXX. XXXXXX.XX. XXXXXXXXX. XXXXXXXXX. XXXXX..XX. XXX.XXXXX",
"XXXXXXXXX. XXXXXXXXX. XXX.XXXXX. XXXXXX.XX. XXXXXXXXX. XXXXXXX.X",
".......... .......... .......... .......... .......... .........",
"                                                                ",
"XXX XXXXXXXXXX XXXXXXXXXX XXXXXXXXXX XXXXXXXXXX XXXXXXXXXX XXXXX",
"XX. XXX..XXXX. XXXXXX..X. XXXXXXXXX. XXXXXX.XX. XXXXXXXXX. XXXXX",
"X.. XXXXXX.XX. XX.XXXXXX. XXX..XXXX. XX.XXXXXX. X.XXXXXXX. XX..X",
"XX. XXXXXXXXX. XXXXXXXXX. XXXXXX.XX. XXXXXXXXX. XXXXXXXXX. XXXXX",
"... .......... .......... .......... .......... .......... .....",
"                                                                ",
"XXXXXXX XXXXXXXXXX XXXXXXXXOOoOOOOOOOXXX XXXXXXXXXX XXXXXXXXXX X",
"XXXXXX. XXXXXX..X. XXXXOOOOX. XXXXXXXOOOoXX..XXXXX. XXXX.XXXX. X",
"XX..XX. XX..XXXXX. XXOOXXX.X. XXXX..XXX. OOXXXXXXX. XXXXX..XX. X",
"XXXXXX. XXXXXXXXX. OOXXXXXX.. X.XXXXXXX. XXOOX..XX. XXXXXXXXX. X",
"....... .........oo.......... .......... ....oo.... .......... .",
"                o                              o                ",
" XXXXXXXXXX XXXOXXXXXX XXXXXXXXXX XXXXXXXXXX XXXOXXXXXX XXXXXXXX",
" XXXXX.XXX. XXOXXX..X. XXXXXX..X. XX..XXXXX. XX.XOXXXX. XXXX.XXX",
" XX.XXXX... XO.XXXXXX. XXX..XXXX. XXXXX..XX. XXXXXO..X. X..XXX.X",
" XXXXXXXXX. OXXXXXXXX.OX..XXXXXX. XXXXXXXOX. .XX.XXOXX. XXXXXXXX",
" ..........o.........OOO......... ......OOO. .......o.. ........",
"           o         OOOO               OOo         o           ",
"XXXX XXXXXOXXXX XXXXXOOOOX XXXXXXXXXX XXOOoXXXXX XXXXOXXXXX XXXX",
"XXX. XX..XOXXX. XXXX.OOOOO XXXX..XXX. XXOOoXXXX. XXXXO.XXX. XXXX",
"..X. X.XXO.X.X. XX..XOOOOOOXX.XXXXX.. XXOOoX..X. XXXXXOXXX. XXX.",
"XXX. XXXXOXXXX. XXXXXOOOoOOOXXXXXXXX. XXOOoXXXX. XX.XXOX.X. X..X",
".... ....o..... .....OOO.oOOO........ ..OOo..... .....o.... ....",
"        o            OOo  oOOO          OOo            o        ",
"XXXXXXXXOXXXXXXXXXX XOOoXXXoOOOX.XXXXXXXOOoXXXXXXXXX XXOXXXXXXX ",
"XXX..XX.OX.XXX..XXX XOOoX..XoOOOXXXXXX..OOoXX..XXXX. XXOXXXXXX. ",
".X.XX.X.OXXX.XXXX.. XOOoXXXXXoOOOXX.XXXXOOoXXXXXXXX. .XO..XX.X. ",
"XXXXXXX.OXXXXXXXXXX XOOoXXXX.XoOOOXXXXXXOOo.XXX.XXX. XXOXXXXXX. ",
"........o.......... .OOo...... oOOO.....OOo......... ..o....... ",
"        o            OOo        oOOO    OOo            o        ",
"X XXXXXXOXXX XXXXXXXXOOoXXXXXXXXXoOOOXXXOOoX XXXXXXXXXXO XXXXXXX",
". XXXX..OXX. XX..XXXXOOoX.XXXXX.X.oOOOXXOOo. XXXXX..XXXO XXXXX..",
". XXXXXXXOX. XXXXXX..OOoXXXX..XXX. oOOOXOOo. XXXXXXXXXO. XX.XXXX",
". X..XXXXOX. X.XXXXXXOOoXXXXXXXXX. XoOOOOOo. XX.XXXXXXO. XXXXXXX",
". .......o.. ........OOo.......... ..oOOOOo. .........o. .......",
"          o          OOo              oOOOo          o          ",
"XXXXX XXXXOXXXXX XXXXOOoXXX XXXXXXXXXX OOOoXXXXX XXXXOXXXXXX XXX",
"XXX.. XX..XOX.X. XXXXOOoXX. XX.XXXXXX. OOOoX..X. XXXOXXX.XX. XXX",
"..XX. XXXXXOXXX. X..XOOoXX. XXXXX..XX. oOOoXXXX. X.XO..XXXX. XXX",
"XXXX. XXXXXXOXX. XXXXoOoXX. XXXXXXXXX. XoOoXXXX. XXOXXXXXXX. XXX",
"..... .......o.. .....o.... .......... ..o...... .o......... ...",
"              o                                  o              ",
"XXXXXXXXX XXXXXOXXXX XXXXXXXXXX XXXXXXXXXX XXXXXOXXX XXXXXXXXXX ",
"XXXXXXXX. XXX.XXOXX. XXXXXXXXX. XXXXXXXX.. XXXXOXXX. XXXXXXXXX. ",
"X..X.XXX. XXXXXX.OO. XXXX.X..X. XXX.X..XX. XXOOXX.X. XX..XX..X. ",
"XXXXXXXX. XXXXXXXXXooXXXXXXXXX. XXXXXXXXX. OOXX.XXX. XXXX.XXXX. ",
"......... .......... oo........ .........oo......... .......... ",
"                       oooo          oooo                       ",
"XX XXXXXXXXXX XXXXXXXXXX XXOOOOOOOOoOXXXXXXXXX XXXXXXXXX XXXXXXX",
"X. XXXXXXXXX. XXXXXXXXX. XXXXXXXXX. XXXXXXXXX. XXXXX..X. XXXXXXX",
"X. XX..XXXX.. XX..XX.XX. XXXXX..XX. XXXXXX.XX. XXXXXXXX. X..XX.X",
"X. XXXXXX.XX. XXXXXXX.X. XXXXXXXX.. XX..XXXXX. XX.X.XXX. XXXXXXX",
".. .......... .......... .......... .......... ......... .......",
"                                                                ",
"XXXXXX XXXXXXXXXX XXXXXXXXXX XXXXXXXXXX XXXXXXXXXXX XXXXXXXXXX X",
"XXXXX. XXXXXXXXX. XXXXXXXXX. XXXXXXXXX. XXXXXXXXXX. XXXXXX.XX. X",
".XXX.. XX..XX.XX. XXX.XX..X. XX.XXXX.X. XXX..XXX.X. XX..XXXX.. X",
"XXX.X. XXXXXXX.X. XXXXXXXXX. XXXX..XXX. XXXXXX.XXX. XXXXXXXXX. X",
"...... .......... .......... .......... ........... .......... .",
"                                                                "
};
