/* XPM */
static char *_a250b6594344bc7e12c2a93a6d2606asZzor1fkyOEZpRHI[] = {
/* columns rows colors chars-per-pixel */
"64 64 5 1 ",
"  c #0E3F33",
". c #1AAA86",
"X c #26D5AA",
"o c #DAD1D1",
"O c white",
/* pixels */
"XXXX..XXX. XXXXXX.XX. XXXXXXXXX. XXXXXXXXX. XXXXX..XX. XXX.XXXXX",
"XXXXXXXXX. XXXXXXXXX. XXX.XXXXX. XXXXXX.XX. XXXXXXXXX. XXXXXXX.X",
".......... .......... .......... .......... .......... .........",
"                                                                ",
"XXX XXXXXXXXXX XXXXXXXXXX XXXXXXXXXX XXXXXXXXXX XXXXXXXXXX XXXXX",
"XX. XXX..XXXX. XXXXXX..X. XXXXXXXXX. XXXXXX.XX. XXXXXXXXX. XXXXX",
"X.. XXXXXX.XX. XX.XXXXXX. XXX..XXXX. XX.XXXXXX. X.XXXXXXX. XX..X",
"XX. XXXXXXXXX. XXXXXXXXX. XXXXXX.XX. XXXXXXXXX. XXXXXXXXX. XXXXX",
"... .......... .......... .......... .......... .......... .....",
"                                                                ",
"XXXXXXX XXXXXXXXXX XXXXXXXXOOoOOOOOOOXXX XXXXXXXXXX XXXXXXXXXX X",
"XXXXXX. XXXXXX..X. XXXXOOOOX. XXXXXXXOOooXX..XXXXX. XXXX.XXXX. X",
"XX..XX. XX..XXXXX. XXOOXXX.X. XXXX..XXX. OOXXXXXXX. XXXXX..XX. X",
"XXXXXX. XXXXXXXXX. OOXXXXXX.. X.XXXXXXX. XXOOX..XX. XXXXXXXXX. X",
"....... .........Oo.......... .......... ....oo.... .......... .",
"                o                              o                ",
" XXXXXXXXXX XXXOXXXXXX XXXXXXXOOO XXXXXXXXXX XXXOXXXXXX XXXXXXXX",
" XXXXX.XXX. XXOXXX..X. XXXXOOOOOooOOO.XXXXX. XX.XOXXXX. XXXX.XXX",
" XX.XXXX... XO.XXXXXX. XXXOOoooooooOOOX..XX. XXXXXO..X. X..XXX.X",
" XXXXXXXXX. OXXXXXXXX. XOOOoXXXX. XoOOOXXXX. .XX.XXOXX. XXXXXXXX",
" ..........o.......... oooo...... ..oooo.... .......o.. ........",
"           o           ooo           ooo            o           ",
"XXXX XXXXXOXXXX XXXXXXOOOo XXXXXXXXXX oXXXXXXXXX XXXXOXXXXX XXXX",
"XXX. XX..XOXXX. XXXX.XoOOo XXXX..XXX. XXX..XXXX. XXXXO.XXX. XXXX",
"..X. X.XXO.X.X. XX..XXXOOo XX.XXXXX.. XXXXXX..X. XXXXXOXXX. XXX.",
"XXX. XXXXOXXXX. XXXXXXXoOOoXXXXXXXXX. XXXXXXXXX. XX.XXOX.X. X..X",
".... ....O..... ........oOoO......... .......... .....o.... ....",
"        o                oooo                          o        ",
"XXXXXXXXOXXXXXXXXXX X.XXXXooOOoOOOOXXXXX XXXXXXXXXXX XXOXXXXXXX ",
"XXX..XX.OX.XXX..XXX XXXXX..XooooOOOOOO.. XXXX..XXXX. XXOXXXXXX. ",
".X.XX.X.OXXX.XXXX.. XX..XXXXXX XooooOOOX XXXXXXXXXX. .XO..XX.X. ",
"XXXXXXX.OXXXXXXXXXX XXXXXXXX.X XXXXXoOOo XX.XXX.XXX. XXOXXXXXX. ",
"........O.......... .......... ......oooo........... ..o....... ",
"        o                             ooooo            o        ",
"X XXXXXXOXXX XXXXXXXXXX XXXXXXXXXX XXXXOOOXX XXXXXXXXXXO XXXXXXX",
". XXXX..OXX. XX..XXXXX. X.XXXXX.X. X.XXOOO.. XXXXX..XXXO XXXXX..",
". XXXXXXXOX. XXXXXX..X. XXXX..XXX. XXXXOOOO. XXXXXXXXXO. XX.XXXX",
". X..XXXXOX. X.XXXXXXXO XXXXXXXXX. XXXXOOOO. XX.XXXXXXO. XXXXXXX",
". .......o.. ........OOo.......... ....oooo. .........o. .......",
"          o          oooo              ooo           o          ",
"XXXXX XXXXOXXXXX XXXXXoOOOX XXXXXXXXXXoOOoXXXXXX XXXXOXXXXXX XXX",
"XXX.. XX..XOX.X. XXXX.XoOOO XX.XXXXXXOoOoXXX..X. XXXOXXX.XX. XXX",
"..XX. XXXXXOXXX. X..XXX.oOOoXXXXX..XOOooX..XXXX. X.XO..XXXX. XXX",
"XXXX. XXXXXXOXX. XXXXXXXXoOoOOXXXXOOOOoXXXXXXXX. XXOXXXXXXX. XXX",
"..... .......o.. .........ooOOOOOOOOOo ......... .o......... ...",
"              o            ooooooooo             o              ",
"XXXXXXXXX XXXXXOXXXX XXXXXXXXXXooXXXXXXXXX XXXXXOXXX XXXXXXXXXX ",
"XXXXXXXX. XXX.XXOXX. XXXXXXXXX. XXXXXXXX.. XXXXOXXX. XXXXXXXXX. ",
"X..X.XXX. XXXXXX.OO. XXXX.X..X. XXX.X..XX. XXOOXX.X. XX..XX..X. ",
"XXXXXXXX. XXXXXXXXXooXXXXXXXXX. XXXXXXXXX. OOXX.XXX. XXXX.XXXX. ",
"......... .......... oo........ .........oo......... .......... ",
"                       oooo          oooo                       ",
"XX XXXXXXXXXX XXXXXXXXXX XXOOOOOOOOOOXXXXXXXXX XXXXXXXXX XXXXXXX",
"X. XXXXXXXXX. XXXXXXXXX. XXXXXXXXX. XXXXXXXXX. XXXXX..X. XXXXXXX",
"X. XX..XXXX.. XX..XX.XX. XXXXX..XX. XXXXXX.XX. XXXXXXXX. X..XX.X",
"X. XXXXXX.XX. XXXXXXX.X. XXXXXXXX.. XX..XXXXX. XX.X.XXX. XXXXXXX",
".. .......... .......... .......... .......... ......... .......",
"                                                                ",
"XXXXXX XXXXXXXXXX XXXXXXXXXX XXXXXXXXXX XXXXXXXXXXX XXXXXXXXXX X",
"XXXXX. XXXXXXXXX. XXXXXXXXX. XXXXXXXXX. XXXXXXXXXX. XXXXXX.XX. X",
".XXX.. XX..XX.XX. XXX.XX..X. XX.XXXX.X. XXX..XXX.X. XX..XXXX.. X",
"XXX.X. XXXXXXX.X. XXXXXXXXX. XXXX..XXX. XXXXXX.XXX. XXXXXXXXX. X",
"...... .......... .......... .......... ........... .......... .",
"                                                                "
};
